<svg version="1" xmlns="http://www.w3.org/2000/svg" width="1030.667" height="1030.667" viewBox="0 0 773.000000 773.000000"><path d="M155.3 91.5c-.3 1.6-.8 3.4-.9 4-.3 1.2-15.4 58.4-24.9 94.5-6.9 26.5-9.7 37.1-15.1 58-1.9 7.4-4.9 18.5-6.5 24.7-1.7 6.3-3.2 12.1-3.4 13.1-.1.9-1.5 6.1-3 11.5-1.4 5.3-2.8 10.5-3 11.5-.2.9-1.3 5.3-2.5 9.7-3.3 12.4-9.2 34.8-9.6 36.9-.2 1-1 4.2-1.8 7-1.6 5.6-4.4 16-10.5 39.6-2.2 8.5-4.8 18.2-5.7 21.5-.9 3.3-1.7 6.7-1.9 7.5l-2 8c-.9 3.6-1.9 7.2-2.1 8-.4 1.8-3.3 12.9-3.8 15-2.2 8.1-5.9 21.7-6.1 22.5-.5 2.4-1.9 7.8-5.2 19.9-1.9 7.2-3.6 13.7-3.8 14.5-.2.9-.8 3.6-1.5 6.1-.7 2.5-1.4 5.2-1.5 6-.2.8-1.1 4.2-2 7.5-3.4 12.6-12.2 46.2-29.5 113-2.2 8.8-4.5 17.4-5.1 19.1-.5 1.7-1.2 4-1.4 5-.2 1-.8 3.5-1.3 5.5l-.9 3.6h61.9c34 0 62.1-.4 62.4-.8.3-.5.7-1.7.9-2.6.2-1 2.9-11.5 6-23.3s5.8-22.2 6-23c.4-1.6 14.4-54.9 17.6-67 1.1-4.1 2.2-8.2 2.4-9 .1-.8 1.1-4.4 2-8 .9-3.6 1.9-7.2 2.1-8 .2-.8 2.9-11.2 6-23s5.8-22.2 5.9-23c.2-.8.4-1.5.5-1.5.1 0 .3-.7.5-1.5.1-.8 4.6-18.2 10-38.5 5.3-20.4 9.8-37.5 9.9-38 .6-2.1 1.9-7.4 4.8-18 1.6-6.1 3.2-11.8 3.4-12.8.2-.9.6-2.5.8-3.5.2-.9 1.8-7.1 3.6-13.7 3-11.5 11.8-45.3 12.6-48.5.2-.8 5.1-19.5 10.9-41.5 5.8-22 10.7-41.2 11-42.6.3-1.4 1.1-4.4 1.9-6.7 1.6-4.5 1.6-4.4 1.6-6.7 0-1.3 6-1.5 48.1-1.5 45.3 0 48 .1 47.5 1.7-.9 3-6.8 25.7-7.2 27.7-.2 1-.8 3.3-1.3 5-1 3-9 33.7-9.6 36.6-.2.8-2.1 8.2-4.3 16.5-4.3 15.8-19.1 72.6-19.7 75.4-.2.9-1.1 4.3-2 7.5-.8 3.2-1.3 6.1-1.1 6.4.9.8 175.8.4 176.6-.4.4-.5 1.4-3.6 2.3-6.9 2.1-8.3 9-35 12.1-46.5 4.8-18.3 16.7-63.7 17.1-65.6.5-2 1.1-4.3 4.5-16.9 1.2-4.4 2.3-8.7 2.5-9.5.2-.8 1.3-5.1 2.4-9.6 1.2-4.5 2.4-9 2.6-10 .3-1 1-4 1.7-6.7l1.1-4.7h47.9c45.2 0 47.9.1 47.4 1.7-1.6 5.7-9.7 36.3-10.1 38.3-.2.8-.8 3.5-1.5 6s-1.3 5.2-1.5 6c-.2.8-1 4-1.9 7.1-.9 3.1-1.8 6.5-2 7.5-.3 1.1-1.3 5.3-2.4 9.4-2.5 9.2-11.3 42.9-11.7 45-.2.8-1.3 4.9-2.4 9-1.2 4.1-3.7 13.8-5.7 21.5-2 7.7-5.8 22.4-8.5 32.7-2.8 10.3-5.2 19.5-5.4 20.5-.2 1-1.1 4.5-2 7.8-.9 3.3-3.8 14.3-6.5 24.5-2.6 10.2-6.4 24.8-8.5 32.5-2 7.7-5.2 20.1-7.1 27.5-2 7.4-4.6 17.5-5.9 22.5-1.3 4.9-3.7 14.2-5.4 20.5-1.6 6.3-5.3 20.3-8.1 31s-5.3 20.2-5.5 21c-.2.8-2.4 9.4-4.9 19-2.5 9.6-6.4 24.5-8.6 33-2.2 8.5-4.3 16.2-4.6 17.1-.4 1.5 4.7 1.6 61.8 1.5l62.3-.1 6.7-25.5c3.7-14 7-26.7 7.3-28.2.3-1.5.9-3.8 1.5-5.2.5-1.5.8-2.6.5-2.6-.2 0 .2-1.8 1-4s1.4-4.4 1.5-4.8c0-.7.5-2.5 2-8.2 1.1-3.8 12.6-48.1 20.9-80 2.8-10.7 7.2-27.4 9.7-37 2.5-9.6 4.7-18.2 5-19 .2-.8 2.6-10.3 5.4-21 6.4-24.3 14.1-54 14.5-56 .2-.8 1.1-4.2 2-7.5 1-3.3 4.9-17.9 8.7-32.5 3.8-14.6 7.1-27.3 7.3-28.3.3-.9.7-2.5.9-3.5.3-.9 2.8-10.5 5.6-21.2s5.2-20.2 5.4-21c.2-.8 3.6-13.8 7.6-28.7 3.9-15 7.3-28.5 7.6-30 .3-1.4.7-2.9.9-3.3.2-.3 3-10.5 6.1-22.6 3.1-12 6.8-26 8.1-30.9 1.3-5 2.5-9.7 2.7-10.5.2-.8 1.2-4.4 2.1-8l2-8c.2-.8 2.9-11 5.9-22.5 3.1-11.6 5.8-22.1 6.1-23.5l.4-2.5H156l-.7 3z"/><path d="M270.4 492.1c-.2.4-1.1 3.5-1.9 7-.9 3.5-2.1 8-2.6 9.9-.5 1.9-1.2 4.6-1.5 5.9-.3 1.3-1.8 7.2-3.3 13-2.7 10-4.1 15.3-4.7 17.6-.1.5-1.6 6.2-3.2 12.5-8.2 31.4-11.4 43.7-11.8 45.2-.9 3.9-1.4 5.8-4.3 16.8-10.1 37.5-16.8 63.6-16.5 64.1.2.4 40.1.6 88.6.5l88.1-.1 1.3-4c1.2-3.9 8.3-30.5 8.9-33.5.2-.8 2.6-10.3 5.5-21 2.8-10.7 5.3-20.2 5.4-21 .4-1.6 11.1-42.3 22.3-85 3.5-13.4 6.5-25.3 6.6-26.4.2-2-.3-2-88.1-2.1-48.6 0-88.6.3-88.8.6z"/></svg>