<svg id="Layer_1" data-name="Layer 1" xmlns="http://www.w3.org/2000/svg" viewBox="0 0 683.04 82.5"><defs><style>.cls-1{fill:red;}</style></defs><title>Hegemon Athletics - Facebook Cover</title><polygon class="cls-1" points="37.41 55.78 30.43 82.5 54.97 82.5 61.95 55.78 37.41 55.78"/><polygon class="cls-1" points="21.56 0 0 82.5 17.17 82.5 33.91 18.44 47.17 18.44 40.76 42.96 65.3 42.96 71.71 18.44 84.97 18.44 68.23 82.5 85.4 82.5 106.96 0 21.56 0"/><path d="M229.38,141.63h6.35l-8.14,31.74h-6.35l3.4-13.24H212.9l-3.4,13.24h-6.35l8.14-31.74h6.35l-3.12,12.15h11.74Z" transform="translate(-83.98 -116.25)"/><path d="M241.41,167h21l-1.63,6.35h-21Zm3.38-13.19h17.54l-1.62,6.34H243.16Zm22.68-5.89H246.3l1.63-6.35H269.1Z" transform="translate(-83.98 -116.25)"/><path d="M308.45,153.78l-.83,3.22c-2.56,10-11.59,16.91-20.11,16.91h-.05c-9.09-.09-14.47-7.39-12-16.5s11.61-16.27,20.63-16.27h.13a12.77,12.77,0,0,1,9.18,3.62l-5.72,4.49a8.12,8.12,0,0,0-5.13-1.77h-.09a12.82,12.82,0,0,0-7.87,3,13.49,13.49,0,0,0-4.81,7.07,8.36,8.36,0,0,0,1,7.16,7.58,7.58,0,0,0,6.34,3c4.63,0,9.42-3.31,11.69-7.57h-7.16l1.62-6.35Z" transform="translate(-83.98 -116.25)"/><path d="M317.7,167h21l-1.63,6.35h-21Zm3.38-13.19h17.54L337,160.17H319.45Zm22.68-5.89H322.59l1.63-6.35h21.17Z" transform="translate(-83.98 -116.25)"/><path d="M374.45,173.37l5-19.45-11.24,8.29-7-8.29-5,19.45h-6.35L358,141.59h2.18l10.19,12.06,16.33-12.06H389l-8.15,31.78Z" transform="translate(-83.98 -116.25)"/><path d="M430,157.45c-2.32,9.07-11.61,16.46-20.67,16.46s-14.57-7.39-12.24-16.46S408.68,141,417.75,141,432.31,148.39,430,157.45Zm-26.38,0c-1.41,5.49,1.89,9.93,7.38,9.93s11.07-4.44,12.47-9.93-1.89-9.92-7.38-9.92S405,152,403.6,157.45Z" transform="translate(-83.98 -116.25)"/><path d="M462.3,173.37l-13.11-18.54-4.75,18.54h-6.35l8.15-31.78h2l13,17.77,4.56-17.77h6.35L464,173.37Z" transform="translate(-83.98 -116.25)"/><path class="cls-1" d="M499.64,141.59l6.85,31.78h-7l-4.12-19.31-14.79,19.31h-7.11l24.33-31.78Z" transform="translate(-83.98 -116.25)"/><path class="cls-1" d="M543.34,141.59l-1.63,6.35h-8.8l-6.52,25.43h-6.34l6.52-25.43h-8.84l1.62-6.35Z" transform="translate(-83.98 -116.25)"/><path class="cls-1" d="M573.38,141.63h6.34l-8.13,31.74h-6.35l3.39-13.24H556.89l-3.39,13.24h-6.35l8.14-31.74h6.34l-3.11,12.15h11.74Z" transform="translate(-83.98 -116.25)"/><path class="cls-1" d="M592.2,167H604l-1.61,6.3H584.24l8.14-31.73h6.34Z" transform="translate(-83.98 -116.25)"/><path class="cls-1" d="M615.77,167h21l-1.63,6.35h-21Zm3.39-13.19H636.7l-1.63,6.34H617.53Zm22.68-5.89H620.67l1.63-6.35h21.17Z" transform="translate(-83.98 -116.25)"/><path class="cls-1" d="M679.41,141.59l-1.63,6.35H669l-6.52,25.43h-6.35l6.52-25.43H653.8l1.63-6.35Z" transform="translate(-83.98 -116.25)"/><path class="cls-1" d="M683.24,173.32l8.13-31.73h6.35l-8.14,31.73Z" transform="translate(-83.98 -116.25)"/><path class="cls-1" d="M729.56,149.3c-5.14-4-15.39-.28-17.57,8.25-2.29,8.93,6.63,12.51,13.77,8l2.89,4.67a20.8,20.8,0,0,1-11.5,3.81c-9.07,0-14.56-7.39-12.23-16.45s11.6-16.46,20.67-16.46a13.1,13.1,0,0,1,9.26,3.49Z" transform="translate(-83.98 -116.25)"/><path class="cls-1" d="M751.82,159.9a11.53,11.53,0,0,1-4.3-2c-2.11-1.68-2.88-4.13-2.24-7.16a11.33,11.33,0,0,1,4-6.49,14.14,14.14,0,0,1,8.19-3.12,12.41,12.41,0,0,1,8.71,3.17l.87.68-4.69,5.39-1-.72c-1.7-1.32-2.8-2.18-5.56-2.18a6.24,6.24,0,0,0-3.12,1.18,2.94,2.94,0,0,0-1,1.81c-.38,1.64.52,2.54,3.24,3.27.34.09.59.18.84.27a11.92,11.92,0,0,1,5.94,4.21,7.66,7.66,0,0,1,.9,6.22,13.11,13.11,0,0,1-4.15,6.3,12.58,12.58,0,0,1-8.14,3.26,17.06,17.06,0,0,1-5.38-.77,12.42,12.42,0,0,1-6.34-4.81l5.75-4.35a8.56,8.56,0,0,0,7.6,3.58,4.84,4.84,0,0,0,4.32-3.21c.44-1.73-1.11-3.31-4.12-4.45l-.13,0Z" transform="translate(-83.98 -116.25)"/></svg>